<svg width="253" height="203" viewBox="0 0 253 203" fill="none" xmlns="http://www.w3.org/2000/svg">
  <path d="M90.1 115.5H46.3C40.8 115.5 36.3 111 36.3 105.5V61.7C36.3 56.2 31.8 51.7 26.3 51.7H22C10.4 51.7 1 61.1 1 72.7V114.9C1 126.5 10.4 135.9 22 135.9H64.2C75.8 135.9 85.2 145.3 85.2 156.9V161.2C85.2 166.7 89.7 171.2 95.2 171.2H100C105.5 171.2 110 166.7 110 161.2V135.7C110 124.5 101.3 115.5 90.1 115.5Z" fill="#0077B6" stroke="#0077B6" stroke-width="1.5"/>
  <path d="M173.2 1H131C119.4 1 110 10.4 110 22V64.2C110 75.8 100.6 85.2 89 85.2H84.7C79.2 85.2 74.7 89.7 74.7 95.2V100C74.7 105.5 79.2 110 84.7 110H118.7C130.3 110 139.7 100.6 139.7 89V45.2C139.7 39.7 144.2 35.2 149.7 35.2H153.7C165.3 35.2 174.7 25.8 174.7 14.2V2.5C174.7 1.7 174 1 173.2 1Z" fill="#0077B6" stroke="#0077B6" stroke-width="1.5"/>
  <path d="M174.5 67.3H171.2C165.7 67.3 161.2 71.8 161.2 77.3V119.5C161.2 125 156.7 129.5 151.2 129.5H107.4C96.2 129.5 87.2 138.4 87.2 149.6V174.8C87.2 180.3 91.7 184.8 97.2 184.8H100.5C106 184.8 110.5 180.3 110.5 174.8V163.3C110.5 157.8 115 153.3 120.5 153.3H162.7C174.3 153.3 183.7 143.9 183.7 132.3V90.1C183.7 78.5 193.1 69.1 204.7 69.1H209C214.5 69.1 219 64.6 219 59.1V54.3C219 48.8 214.5 44.3 209 44.3H183.9C178.5 44.3 174 49 174.5 54.3V67.3Z" fill="#0077B6" stroke="#0077B6" stroke-width="1.5"/>
  <path d="M58.5 83.9C52.9 79.7 52.1 71.3 56.3 65.7L78.7 37.6C83.1 31.8 91.9 31.3 97.1 36.3L122.9 60.7C128.1 65.7 128.3 73.9 123.3 79.1L73.6 135C68.4 140.6 59.8 140.8 54.4 135.4L32 113C26.8 107.8 26.8 99.6 32 94.4L58.5 83.9Z" fill="#FF9900"/>
</svg>